<svg xmlns="http://www.w3.org/2000/svg" id="raphael-paper-5" width="550" height="350" version="1.1" style="overflow:hidden;-webkit-tap-highlight-color:transparent;user-select:none;cursor:default;vertical-align:middle;position:relative;background-color:#fff"><desc/><defs><clipPath id="rr-49DB0966-44E1-42FF-B9FC-92B262D41C11"><rect width="481" height="241" x="54" y="67.2" transform="matrix(1,0,0,1,0,0)"/></clipPath><clipPath id="rr-49004B48-2424-46C6-8DC9-B39CC3EC5D72"><rect width="481" height="241" x="54" y="67.2" transform="matrix(1,0,0,1,0,0)"/></clipPath><clipPath id="rr-232607D5-64C4-4AC9-AB42-6A1233811909"><rect width="485" height="245" x="52" y="65.2" transform="matrix(1,0,0,1,0,0)"/></clipPath><clipPath id="rr-AC08B54F-5E36-4607-BB1F-D74249684D69"><rect width="485" height="245" x="52" y="65.2" transform="matrix(1,0,0,1,0,0)"/></clipPath><clipPath id="rr-EF0D08DD-1F7E-40E8-BDD5-074DDCC689B2"><rect width="485" height="245" x="52" y="65.2" transform="matrix(1,0,0,1,0,0)"/></clipPath><clipPath id="rr-70B52328-9E93-4CCB-AF4A-F85EAD0F2AD1"><rect width="481" height="308.2" x="54" y="0" transform="matrix(1,0,0,1,0,0)"/></clipPath></defs><g class="raphael-group-6-parentgroup"><g class="raphael-group-7-background"><rect width="550" height="350" x="0" y="0" fill="#fff" fill-opacity="1" stroke="none" rx="0" ry="0"/><rect width="550" height="350" x="0" y="0" fill="none" stroke="#767575" stroke-dasharray="none" stroke-opacity=".5" stroke-width="0" rx="0" ry="0"/></g><g class="raphael-group-33-canvas"><rect width="481" height="241" x="54" y="67.2" fill="#fff" fill-opacity="0" stroke="none" stroke-width="0" rx="0" ry="0"/></g><g class="raphael-group-8-axisbottom"><g class="raphael-group-83-dataset-Label-group"><g class="raphael-group-86-dataset-axis" font-family="Source Sans Pro" font-size="14" font-style="normal" font-weight="normal" style="font-family:&quot;Source Sans Pro&quot;;font-size:14px;font-weight:400;font-style:normal"><text x="39" y="312" fill="#5a5a5a" fill-opacity="1" stroke="none" font-size="14" opacity="1" text-anchor="end" transform="matrix(1,0,0,1,0,0) matrix(1,0,0,1,0,0)" style="font-size:14px;text-anchor:end">0</text><text x="39" y="272" fill="#5a5a5a" fill-opacity="1" stroke="none" font-size="14" opacity="1" text-anchor="end" transform="matrix(1,0,0,1,0,0) matrix(1,0,0,1,0,0)" style="font-size:14px;text-anchor:end">5K</text><text x="39" y="232" fill="#5a5a5a" fill-opacity="1" stroke="none" font-size="14" opacity="1" text-anchor="end" transform="matrix(1,0,0,1,0,0) matrix(1,0,0,1,0,0)" style="font-size:14px;text-anchor:end">10K</text><text x="39" y="192" fill="#5a5a5a" fill-opacity="1" stroke="none" font-size="14" opacity="1" text-anchor="end" transform="matrix(1,0,0,1,0,0) matrix(1,0,0,1,0,0)" style="font-size:14px;text-anchor:end">15K</text><text x="39" y="152" fill="#5a5a5a" fill-opacity="1" stroke="none" font-size="14" opacity="1" text-anchor="end" transform="matrix(1,0,0,1,0,0) matrix(1,0,0,1,0,0)" style="font-size:14px;text-anchor:end">20K</text><text x="39" y="112" fill="#5a5a5a" fill-opacity="1" stroke="none" font-size="14" opacity="1" text-anchor="end" transform="matrix(1,0,0,1,0,0) matrix(1,0,0,1,0,0)" style="font-size:14px;text-anchor:end">25K</text><text x="39" y="71" fill="#5a5a5a" fill-opacity="1" stroke="none" font-size="14" opacity="1" text-anchor="end" transform="matrix(1,0,0,1,0,0) matrix(1,0,0,1,0,0)" style="font-size:14px;text-anchor:end">30K</text></g></g><g class="raphael-group-102-dataset-Label-group"><g class="raphael-group-105-dataset-axis" font-family="Source Sans Pro" font-size="14" font-style="normal" font-weight="normal" style="font-family:&quot;Source Sans Pro&quot;;font-size:14px;font-weight:400;font-style:normal"><text x="134.167" y="331" fill="#5a5a5a" fill-opacity="1" stroke="none" opacity="1" text-anchor="middle" transform="matrix(1,0,0,1,0,0) matrix(1,0,0,1,0,0)" style="text-anchor:middle">Mon</text><text x="294.5" y="331" fill="#5a5a5a" fill-opacity="1" stroke="none" opacity="1" text-anchor="middle" transform="matrix(1,0,0,1,0,0) matrix(1,0,0,1,0,0)" style="text-anchor:middle">Tue</text><text x="454.833" y="331" fill="#5a5a5a" fill-opacity="1" stroke="none" opacity="1" text-anchor="middle" transform="matrix(1,0,0,1,0,0) matrix(1,0,0,1,0,0)" style="text-anchor:middle">Wed</text></g></g></g><g class="raphael-group-34-axisReferenceVisualsBottom"><path fill="none" stroke="#dfdfdf" stroke-dasharray="none" stroke-linecap="butt" stroke-opacity=".4" stroke-width="1" d="M54,308.5L535,308.5"/><path fill="none" stroke="#dfdfdf" stroke-dasharray="none" stroke-linecap="butt" stroke-opacity=".4" stroke-width="1" d="M54,268.5L535,268.5"/><path fill="none" stroke="#dfdfdf" stroke-dasharray="none" stroke-linecap="butt" stroke-opacity=".4" stroke-width="1" d="M54,227.5L535,227.5"/><path fill="none" stroke="#dfdfdf" stroke-dasharray="none" stroke-linecap="butt" stroke-opacity=".4" stroke-width="1" d="M54,187.5L535,187.5"/><path fill="none" stroke="#dfdfdf" stroke-dasharray="none" stroke-linecap="butt" stroke-opacity=".4" stroke-width="1" d="M54,147.5L535,147.5"/><path fill="none" stroke="#dfdfdf" stroke-dasharray="none" stroke-linecap="butt" stroke-opacity=".4" stroke-width="1" d="M54,107.5L535,107.5"/><path fill="none" stroke="#dfdfdf" stroke-dasharray="none" stroke-linecap="butt" stroke-opacity=".4" stroke-width="1" d="M54,67.5L535,67.5"/></g><g class="raphael-group-11-plots" clip-path="url('#rr-232607D5-64C4-4AC9-AB42-6A1233811909')"><g class="raphael-group-45-column"><g class="raphael-group-61-vcanvas-column-plot"><g class="raphael-group-74-plot-group" transform="matrix(1,0,0,1,0,0)"><rect width="50" height="121" x="109.5" y="187.5" fill="#5d62b5" fill-opacity="1" stroke="silver" stroke-dasharray="none" stroke-linejoin="miter" stroke-opacity="0" stroke-width="0" rx="0" ry="0"/><rect width="50" height="114" x="269.5" y="194.5" fill="#5d62b5" fill-opacity="1" stroke="silver" stroke-dasharray="none" stroke-linejoin="miter" stroke-opacity="0" stroke-width="0" rx="0" ry="0"/><rect width="50" height="205" x="429.5" y="103.5" fill="#5d62b5" fill-opacity="1" stroke="silver" stroke-dasharray="none" stroke-linejoin="miter" stroke-opacity="0" stroke-width="0" rx="0" ry="0"/></g></g></g></g><g class="raphael-group-17-caption"><text x="294.5" y="31" fill="#5a5a5a" fill-opacity="1" stroke="none" font-family="Source Sans Pro" font-size="18" font-weight="bold" text-anchor="middle" style="text-anchor:middle;font-family:&quot;Source Sans Pro&quot;;font-size:18px;font-weight:700">Number of visitors last week</text><text x="294.5" y="50" fill="#999" fill-opacity="1" stroke="none" font-family="Source Sans Pro" font-size="13" font-weight="normal" text-anchor="middle" style="text-anchor:middle;font-family:&quot;Source Sans Pro&quot;;font-size:13px;font-weight:400">Bakersfield Central vs Los Angeles Topanga</text></g><g class="raphael-group-29-TB_MASTER2"><rect width="14" height="13" x="540" y="6" fill="red" fill-opacity="0" stroke="red" stroke-opacity="0" stroke-width="1" rx="0" ry="0"/><g class="raphael-group-31-toolbar-group10"><rect width="8" height="7" x="543" y="9" fill="red" fill-opacity="0" stroke="red" stroke-opacity="0" stroke-width="1" rx="1" ry="1"/></g></g></g><g class="raphael-group-23-creditgroup"><text x="6" y="343" fill="#000" fill-opacity=".5" stroke="none" font-family="Verdana,sans" font-size="9" text-anchor="start" style="font-size:9px;font-family:Verdana,sans;cursor:pointer;text-anchor:start">FusionCharts XT Trial</text></g></svg>